<svg width="800" height="600" xmlns="http://www.w3.org/2000/svg">
  <defs>
    <radialGradient id="ashEnd"><stop offset="0%" stop-color="#efebe9"/><stop offset="100%" stop-color="#bcaaa4"/></radialGradient>
    <filter id="shadow">
      <feGaussianBlur in="SourceAlpha" stdDeviation="4"/>
      <feOffset dx="2" dy="4"/>
      <feComponentTransfer><feFuncA type="linear" slope="0.3"/></feComponentTransfer>
      <feMerge><feMergeNode/><feMergeNode in="SourceGraphic"/></feMerge>
    </filter>
  </defs>
  
  <rect width="800" height="600" fill="#fafafa"/>
  
  <g filter="url(#shadow)">
    <ellipse cx="200" cy="450" rx="60" ry="80" fill="url(#ashEnd)"/>
    <ellipse cx="200" cy="450" rx="50" ry="68" fill="none" stroke="#8d6e63" stroke-width="2" opacity="0.4"/>
    <ellipse cx="200" cy="450" rx="35" ry="48" fill="none" stroke="#795548" stroke-width="2" opacity="0.3"/>
    <line x1="200" y1="425" x2="200" y2="400" stroke="#5d4037" stroke-width="2.5" opacity="0.5"/>
    
    <ellipse cx="400" cy="460" rx="65" ry="85" fill="url(#ashEnd)"/>
    <ellipse cx="400" cy="460" rx="55" ry="73" fill="none" stroke="#8d6e63" stroke-width="2" opacity="0.4"/>
    <ellipse cx="400" cy="460" rx="40" ry="54" fill="none" stroke="#795548" stroke-width="2" opacity="0.3"/>
    <line x1="385" y1="440" x2="370" y2="420" stroke="#5d4037" stroke-width="2" opacity="0.4"/>
    
    <ellipse cx="600" cy="455" rx="58" ry="78" fill="url(#ashEnd)"/>
    <ellipse cx="600" cy="455" rx="48" ry="66" fill="none" stroke="#8d6e63" stroke-width="2" opacity="0.4"/>
    
    <ellipse cx="300" cy="320" rx="55" ry="73" fill="url(#ashEnd)"/>
    <ellipse cx="300" cy="320" rx="45" ry="61" fill="none" stroke="#8d6e63" stroke-width="2" opacity="0.4"/>
    <ellipse cx="300" cy="320" rx="32" ry="43" fill="none" stroke="#795548" stroke-width="2" opacity="0.3"/>
    
    <ellipse cx="500" cy="325" rx="57" ry="75" fill="url(#ashEnd)"/>
    <ellipse cx="500" cy="325" rx="47" ry="63" fill="none" stroke="#8d6e63" stroke-width="2" opacity="0.4"/>
  </g>
  
  <g transform="translate(680, 80)">
    <circle r="50" fill="#fff" opacity="0.9" filter="url(#shadow)"/>
    <path d="M -5,-25 L 5,-25 L 0,-5 L 10,20 L -10,20 Z" fill="#ffd54f" stroke="#ff6f00" stroke-width="2"/>
    <text y="55" font-family="Arial" font-size="14" font-weight="bold" text-anchor="middle" fill="#ff6f00">FRÊNE</text>
  </g>
</svg>
