<svg width="400" height="300" xmlns="http://www.w3.org/2000/svg">
  <!-- Background -->
  <rect width="400" height="300" fill="#f5f5f5"/>
  
  <!-- Wood stack - darker brown for maple -->
  <g>
    <!-- Back row logs -->
    <ellipse cx="100" cy="150" rx="15" ry="20" fill="#5d4037" stroke="#3e2723" stroke-width="2"/>
    <rect x="85" y="130" width="30" height="80" fill="#6d4c41" stroke="#3e2723" stroke-width="2"/>
    <ellipse cx="100" cy="130" rx="15" ry="20" fill="#795548"/>
    
    <ellipse cx="150" cy="150" rx="15" ry="20" fill="#5d4037" stroke="#3e2723" stroke-width="2"/>
    <rect x="135" y="130" width="30" height="80" fill="#6d4c41" stroke="#3e2723" stroke-width="2"/>
    <ellipse cx="150" cy="130" rx="15" ry="20" fill="#795548"/>
    
    <ellipse cx="200" cy="150" rx="15" ry="20" fill="#5d4037" stroke="#3e2723" stroke-width="2"/>
    <rect x="185" y="130" width="30" height="80" fill="#6d4c41" stroke="#3e2723" stroke-width="2"/>
    <ellipse cx="200" cy="130" rx="15" ry="20" fill="#795548"/>
    
    <ellipse cx="250" cy="150" rx="15" ry="20" fill="#5d4037" stroke="#3e2723" stroke-width="2"/>
    <rect x="235" y="130" width="30" height="80" fill="#6d4c41" stroke="#3e2723" stroke-width="2"/>
    <ellipse cx="250" cy="130" rx="15" ry="20" fill="#795548"/>
    
    <ellipse cx="300" cy="150" rx="15" ry="20" fill="#5d4037" stroke="#3e2723" stroke-width="2"/>
    <rect x="285" y="130" width="30" height="80" fill="#6d4c41" stroke="#3e2723" stroke-width="2"/>
    <ellipse cx="300" cy="130" rx="15" ry="20" fill="#795548"/>
    
    <!-- Front row logs -->
    <ellipse cx="125" cy="180" rx="15" ry="20" fill="#6d4c41" stroke="#3e2723" stroke-width="2"/>
    <rect x="110" y="160" width="30" height="90" fill="#795548" stroke="#3e2723" stroke-width="2"/>
    <ellipse cx="125" cy="160" rx="15" ry="20" fill="#8d6e63"/>
    <line x1="125" y1="155" x2="125" y2="165" stroke="#5d4037" stroke-width="1"/>
    <line x1="120" y1="160" x2="130" y2="160" stroke="#5d4037" stroke-width="1"/>
    
    <ellipse cx="175" cy="180" rx="15" ry="20" fill="#6d4c41" stroke="#3e2723" stroke-width="2"/>
    <rect x="160" y="160" width="30" height="90" fill="#795548" stroke="#3e2723" stroke-width="2"/>
    <ellipse cx="175" cy="160" rx="15" ry="20" fill="#8d6e63"/>
    <line x1="175" y1="155" x2="175" y2="165" stroke="#5d4037" stroke-width="1"/>
    <line x1="170" y1="160" x2="180" y2="160" stroke="#5d4037" stroke-width="1"/>
    
    <ellipse cx="225" cy="180" rx="15" ry="20" fill="#6d4c41" stroke="#3e2723" stroke-width="2"/>
    <rect x="210" y="160" width="30" height="90" fill="#795548" stroke="#3e2723" stroke-width="2"/>
    <ellipse cx="225" cy="160" rx="15" ry="20" fill="#8d6e63"/>
    <line x1="225" y1="155" x2="225" y2="165" stroke="#5d4037" stroke-width="1"/>
    <line x1="220" y1="160" x2="230" y2="160" stroke="#5d4037" stroke-width="1"/>
    
    <ellipse cx="275" cy="180" rx="15" ry="20" fill="#6d4c41" stroke="#3e2723" stroke-width="2"/>
    <rect x="260" y="160" width="30" height="90" fill="#795548" stroke="#3e2723" stroke-width="2"/>
    <ellipse cx="275" cy="160" rx="15" ry="20" fill="#8d6e63"/>
    <line x1="275" y1="155" x2="275" y2="165" stroke="#5d4037" stroke-width="1"/>
    <line x1="270" y1="160" x2="280" y2="160" stroke="#5d4037" stroke-width="1"/>
  </g>
  
  <!-- Maple leaf decoration -->
  <g transform="translate(340, 40)">
    <path d="M 0,-20 L -5,-10 L -15,-12 L -8,-5 L -15,5 L -5,0 L 0,15 L 5,0 L 15,5 L 8,-5 L 15,-12 L 5,-10 Z" 
          fill="#d84315" opacity="0.8"/>
  </g>
</svg>