<svg width="800" height="600" xmlns="http://www.w3.org/2000/svg">
  <!-- Defs for realistic effects -->
  <defs>
    <radialGradient id="woodGradient" cx="50%" cy="30%">
      <stop offset="0%" style="stop-color:#8d6e63;stop-opacity:1" />
      <stop offset="100%" style="stop-color:#4e342e;stop-opacity:1" />
    </radialGradient>
    <radialGradient id="logEnd" cx="50%" cy="50%">
      <stop offset="0%" style="stop-color:#a1887f;stop-opacity:1" />
      <stop offset="60%" style="stop-color:#6d4c41;stop-opacity:1" />
      <stop offset="100%" style="stop-color:#4e342e;stop-opacity:1" />
    </radialGradient>
    <filter id="shadow">
      <feGaussianBlur in="SourceAlpha" stdDeviation="4"/>
      <feOffset dx="2" dy="4" result="offsetblur"/>
      <feComponentTransfer>
        <feFuncA type="linear" slope="0.3"/>
      </feComponentTransfer>
      <feMerge>
        <feMergeNode/>
        <feMergeNode in="SourceGraphic"/>
      </feMerge>
    </filter>
  </defs>
  
  <!-- Warm background -->
  <rect width="800" height="600" fill="#fef3e2"/>
  
  <!-- Decorative maple leaves background -->
  <g opacity="0.1">
    <path d="M 100,80 L 95,90 L 85,88 L 92,95 L 85,105 L 95,100 L 100,115 L 105,100 L 115,105 L 108,95 L 115,88 L 105,90 Z" 
          fill="#d84315"/>
    <path d="M 700,120 L 695,130 L 685,128 L 692,135 L 685,145 L 695,140 L 700,155 L 705,140 L 715,145 L 708,135 L 715,128 L 705,130 Z" 
          fill="#d84315"/>
  </g>
  
  <!-- Large stacked logs - realistic perspective -->
  <g filter="url(#shadow)">
    <!-- Bottom row - 3 large logs -->
    <g>
      <!-- Log 1 - left -->
      <ellipse cx="200" cy="450" rx="60" ry="80" fill="url(#woodGradient)"/>
      <ellipse cx="200" cy="450" rx="55" ry="75" fill="url(#logEnd)"/>
      <!-- Growth rings -->
      <ellipse cx="200" cy="450" rx="45" ry="62" fill="none" stroke="#5d4037" stroke-width="2" opacity="0.4"/>
      <ellipse cx="200" cy="450" rx="35" ry="48" fill="none" stroke="#5d4037" stroke-width="2" opacity="0.3"/>
      <ellipse cx="200" cy="450" rx="25" ry="34" fill="none" stroke="#4e342e" stroke-width="2" opacity="0.5"/>
      <ellipse cx="200" cy="450" rx="15" ry="20" fill="none" stroke="#3e2723" stroke-width="2" opacity="0.6"/>
      <!-- Radial cracks -->
      <line x1="200" y1="430" x2="200" y2="410" stroke="#3e2723" stroke-width="2" opacity="0.4"/>
      <line x1="185" y1="440" x2="170" y2="425" stroke="#3e2723" stroke-width="1.5" opacity="0.3"/>
      
      <!-- Log 2 - center -->
      <ellipse cx="400" cy="460" rx="65" ry="85" fill="url(#woodGradient)"/>
      <ellipse cx="400" cy="460" rx="60" ry="80" fill="url(#logEnd)"/>
      <ellipse cx="400" cy="460" rx="50" ry="67" fill="none" stroke="#5d4037" stroke-width="2" opacity="0.4"/>
      <ellipse cx="400" cy="460" rx="40" ry="53" fill="none" stroke="#5d4037" stroke-width="2" opacity="0.3"/>
      <ellipse cx="400" cy="460" rx="30" ry="40" fill="none" stroke="#4e342e" stroke-width="2" opacity="0.5"/>
      <ellipse cx="400" cy="460" rx="20" ry="27" fill="none" stroke="#3e2723" stroke-width="2" opacity="0.6"/>
      <line x1="400" y1="435" x2="400" y2="415" stroke="#3e2723" stroke-width="2" opacity="0.4"/>
      
      <!-- Log 3 - right -->
      <ellipse cx="600" cy="455" rx="58" ry="78" fill="url(#woodGradient)"/>
      <ellipse cx="600" cy="455" rx="53" ry="73" fill="url(#logEnd)"/>
      <ellipse cx="600" cy="455" rx="43" ry="60" fill="none" stroke="#5d4037" stroke-width="2" opacity="0.4"/>
      <ellipse cx="600" cy="455" rx="33" ry="46" fill="none" stroke="#5d4037" stroke-width="2" opacity="0.3"/>
      <ellipse cx="600" cy="455" rx="23" ry="32" fill="none" stroke="#4e342e" stroke-width="2" opacity="0.5"/>
      <line x1="615" y1="445" x2="630" y2="430" stroke="#3e2723" stroke-width="1.5" opacity="0.3"/>
    </g>
    
    <!-- Top row - 2 logs -->
    <g>
      <!-- Log 4 - left top -->
      <ellipse cx="300" cy="320" rx="55" ry="73" fill="url(#woodGradient)"/>
      <ellipse cx="300" cy="320" rx="50" ry="68" fill="url(#logEnd)"/>
      <ellipse cx="300" cy="320" rx="40" ry="55" fill="none" stroke="#5d4037" stroke-width="2" opacity="0.4"/>
      <ellipse cx="300" cy="320" rx="30" ry="41" fill="none" stroke="#5d4037" stroke-width="2" opacity="0.3"/>
      <ellipse cx="300" cy="320" rx="20" ry="28" fill="none" stroke="#4e342e" stroke-width="2" opacity="0.5"/>
      <line x1="300" y1="300" x2="300" y2="280" stroke="#3e2723" stroke-width="2" opacity="0.4"/>
      
      <!-- Log 5 - right top -->
      <ellipse cx="500" cy="325" rx="57" ry="75" fill="url(#woodGradient)"/>
      <ellipse cx="500" cy="325" rx="52" ry="70" fill="url(#logEnd)"/>
      <ellipse cx="500" cy="325" rx="42" ry="57" fill="none" stroke="#5d4037" stroke-width="2" opacity="0.4"/>
      <ellipse cx="500" cy="325" rx="32" ry="43" fill="none" stroke="#5d4037" stroke-width="2" opacity="0.3"/>
      <ellipse cx="500" cy="325" rx="22" ry="30" fill="none" stroke="#4e342e" stroke-width="2" opacity="0.5"/>
      <line x1="500" y1="305" x2="500" y2="285" stroke="#3e2723" stroke-width="2" opacity="0.4"/>
    </g>
  </g>
  
  <!-- Maple leaf badge -->
  <g transform="translate(680, 80)">
    <circle cx="0" cy="0" r="50" fill="#fff" opacity="0.9" filter="url(#shadow)"/>
    <path d="M 0,-30 L -7,-15 L -22,-18 L -12,-7 L -22,7 L -7,0 L 0,22 L 7,0 L 22,7 L 12,-7 L 22,-18 L 7,-15 Z" 
          fill="#d84315"/>
    <text x="0" y="55" font-family="Arial, sans-serif" font-size="14" font-weight="bold" text-anchor="middle" fill="#d84315">ÉRABLE</text>
  </g>
  
  <!-- Wood texture overlay -->
  <rect width="800" height="600" fill="url(#woodGradient)" opacity="0.03"/>
</svg>