<svg width="400" height="300" xmlns="http://www.w3.org/2000/svg">
  <!-- Background -->
  <rect width="400" height="300" fill="#f5f5f5"/>
  
  <!-- Wood stack - mixed colors -->
  <g>
    <!-- Back row logs - various wood types -->
    <ellipse cx="100" cy="150" rx="15" ry="20" fill="#5d4037" stroke="#3e2723" stroke-width="2"/>
    <rect x="85" y="130" width="30" height="80" fill="#6d4c41" stroke="#3e2723" stroke-width="2"/>
    <ellipse cx="100" cy="130" rx="15" ry="20" fill="#795548"/>
    
    <ellipse cx="150" cy="150" rx="15" ry="20" fill="#d7ccc8" stroke="#5d4037" stroke-width="2"/>
    <rect x="135" y="130" width="30" height="80" fill="#efebe9" stroke="#5d4037" stroke-width="2"/>
    <ellipse cx="150" cy="130" rx="15" ry="20" fill="#f5f5f5"/>
    <line x1="135" y1="145" x2="165" y2="145" stroke="#8d6e63" stroke-width="1"/>
    
    <ellipse cx="200" cy="150" rx="15" ry="20" fill="#8d6e63" stroke="#5d4037" stroke-width="2"/>
    <rect x="185" y="130" width="30" height="80" fill="#a1887f" stroke="#5d4037" stroke-width="2"/>
    <ellipse cx="200" cy="130" rx="15" ry="20" fill="#bcaaa4"/>
    
    <ellipse cx="250" cy="150" rx="15" ry="20" fill="#6d4c41" stroke="#3e2723" stroke-width="2"/>
    <rect x="235" y="130" width="30" height="80" fill="#795548" stroke="#3e2723" stroke-width="2"/>
    <ellipse cx="250" cy="130" rx="15" ry="20" fill="#8d6e63"/>
    
    <ellipse cx="300" cy="150" rx="15" ry="20" fill="#d7ccc8" stroke="#5d4037" stroke-width="2"/>
    <rect x="285" y="130" width="30" height="80" fill="#efebe9" stroke="#5d4037" stroke-width="2"/>
    <ellipse cx="300" cy="130" rx="15" ry="20" fill="#f5f5f5"/>
    <line x1="285" y1="160" x2="315" y2="160" stroke="#8d6e63" stroke-width="1"/>
    
    <!-- Front row logs - mixed -->
    <ellipse cx="125" cy="180" rx="15" ry="20" fill="#5d4037" stroke="#3e2723" stroke-width="2"/>
    <rect x="110" y="160" width="30" height="90" fill="#6d4c41" stroke="#3e2723" stroke-width="2"/>
    <ellipse cx="125" cy="160" rx="15" ry="20" fill="#795548"/>
    <line x1="125" y1="155" x2="125" y2="165" stroke="#5d4037" stroke-width="1"/>
    
    <ellipse cx="175" cy="180" rx="15" ry="20" fill="#d7ccc8" stroke="#5d4037" stroke-width="2"/>
    <rect x="160" y="160" width="30" height="90" fill="#efebe9" stroke="#5d4037" stroke-width="2"/>
    <ellipse cx="175" cy="160" rx="15" ry="20" fill="#f5f5f5"/>
    <line x1="160" y1="185" x2="190" y2="185" stroke="#8d6e63" stroke-width="1.5"/>
    <line x1="160" y1="205" x2="190" y2="205" stroke="#8d6e63" stroke-width="1.5"/>
    <line x1="160" y1="225" x2="190" y2="225" stroke="#8d6e63" stroke-width="1.5"/>
    
    <ellipse cx="225" cy="180" rx="15" ry="20" fill="#8d6e63" stroke="#5d4037" stroke-width="2"/>
    <rect x="210" y="160" width="30" height="90" fill="#a1887f" stroke="#5d4037" stroke-width="2"/>
    <ellipse cx="225" cy="160" rx="15" ry="20" fill="#bcaaa4"/>
    
    <ellipse cx="275" cy="180" rx="15" ry="20" fill="#6d4c41" stroke="#3e2723" stroke-width="2"/>
    <rect x="260" y="160" width="30" height="90" fill="#795548" stroke="#3e2723" stroke-width="2"/>
    <ellipse cx="275" cy="160" rx="15" ry="20" fill="#8d6e63"/>
    <line x1="275" y1="155" x2="275" y2="165" stroke="#5d4037" stroke-width="1"/>
  </g>
  
  <!-- Mixed leaves decoration -->
  <g transform="translate(340, 30)">
    <path d="M 0,-15 L -5,-8 L -12,-10 L -6,-4 L -12,4 L -5,0 L 0,12 L 5,0 L 12,4 L 6,-4 L 12,-10 L 5,-8 Z" 
          fill="#d84315" opacity="0.7"/>
    <ellipse cx="5" cy="25" rx="6" ry="12" fill="#81c784" opacity="0.7"/>
  </g>
</svg>