<svg width="800" height="600" xmlns="http://www.w3.org/2000/svg">
  <defs>
    <radialGradient id="premEnd"><stop offset="0%" stop-color="#6d4c41"/><stop offset="100%" stop-color="#3e2723"/></radialGradient>
    <filter id="shadow">
      <feGaussianBlur in="SourceAlpha" stdDeviation="4"/>
      <feOffset dx="2" dy="4"/>
      <feComponentTransfer><feFuncA type="linear" slope="0.3"/></feComponentTransfer>
      <feMerge><feMergeNode/><feMergeNode in="SourceGraphic"/></feMerge>
    </filter>
  </defs>
  
  <rect width="800" height="600" fill="#fff3e0"/>
  
  <g filter="url(#shadow)">
    <ellipse cx="200" cy="450" rx="60" ry="80" fill="url(#premEnd)"/>
    <ellipse cx="200" cy="450" rx="50" ry="68" fill="none" stroke="#5d4037" stroke-width="2" opacity="0.5"/>
    <ellipse cx="200" cy="450" rx="38" ry="52" fill="none" stroke="#4e342e" stroke-width="2" opacity="0.4"/>
    <ellipse cx="200" cy="450" rx="25" ry="34" fill="none" stroke="#3e2723" stroke-width="2" opacity="0.6"/>
    
    <ellipse cx="400" cy="460" rx="65" ry="85" fill="url(#premEnd)"/>
    <ellipse cx="400" cy="460" rx="55" ry="73" fill="none" stroke="#5d4037" stroke-width="2" opacity="0.5"/>
    <ellipse cx="400" cy="460" rx="42" ry="57" fill="none" stroke="#4e342e" stroke-width="2" opacity="0.4"/>
    <ellipse cx="400" cy="460" rx="28" ry="38" fill="none" stroke="#3e2723" stroke-width="2" opacity="0.6"/>
    
    <ellipse cx="600" cy="455" rx="58" ry="78" fill="url(#premEnd)"/>
    <ellipse cx="600" cy="455" rx="48" ry="66" fill="none" stroke="#5d4037" stroke-width="2" opacity="0.5"/>
    <ellipse cx="600" cy="455" rx="36" ry="50" fill="none" stroke="#4e342e" stroke-width="2" opacity="0.4"/>
    
    <ellipse cx="300" cy="320" rx="55" ry="73" fill="url(#premEnd)"/>
    <ellipse cx="300" cy="320" rx="45" ry="61" fill="none" stroke="#5d4037" stroke-width="2" opacity="0.5"/>
    <ellipse cx="300" cy="320" rx="33" ry="45" fill="none" stroke="#4e342e" stroke-width="2" opacity="0.4"/>
    
    <ellipse cx="500" cy="325" rx="57" ry="75" fill="url(#premEnd)"/>
    <ellipse cx="500" cy="325" rx="47" ry="63" fill="none" stroke="#5d4037" stroke-width="2" opacity="0.5"/>
    <ellipse cx="500" cy="325" rx="35" ry="48" fill="none" stroke="#4e342e" stroke-width="2" opacity="0.4"/>
  </g>
  
  <g transform="translate(680, 80)">
    <circle r="55" fill="#ffd54f" opacity="0.9" filter="url(#shadow)"/>
    <path d="M 0,-30 L -8,-15 L -25,-18 L -13,-7 L -20,8 L -5,0 L 0,20 L 5,0 L 20,8 L 13,-7 L 25,-18 L 8,-15 Z" fill="#ff6f00"/>
    <text y="62" font-family="Arial" font-size="11" font-weight="bold" text-anchor="middle" fill="#ff6f00">PREMIUM</text>
  </g>
</svg>
