<svg width="400" height="300" xmlns="http://www.w3.org/2000/svg">
  <!-- Background -->
  <rect width="400" height="300" fill="#f5f5f5"/>
  
  <!-- Premium wood stack - various premium woods -->
  <g>
    <!-- Back row - premium woods -->
    <ellipse cx="100" cy="150" rx="15" ry="20" fill="#5d4037" stroke="#3e2723" stroke-width="2"/>
    <rect x="85" y="130" width="30" height="80" fill="#6d4c41" stroke="#3e2723" stroke-width="2"/>
    <ellipse cx="100" cy="130" rx="15" ry="20" fill="#795548"/>
    
    <ellipse cx="150" cy="150" rx="15" ry="20" fill="#8d6e63" stroke="#5d4037" stroke-width="2"/>
    <rect x="135" y="130" width="30" height="80" fill="#a1887f" stroke="#5d4037" stroke-width="2"/>
    <ellipse cx="150" cy="130" rx="15" ry="20" fill="#bcaaa4"/>
    
    <ellipse cx="200" cy="150" rx="15" ry="20" fill="#6d4c41" stroke="#3e2723" stroke-width="2"/>
    <rect x="185" y="130" width="30" height="80" fill="#795548" stroke="#3e2723" stroke-width="2"/>
    <ellipse cx="200" cy="130" rx="15" ry="20" fill="#8d6e63"/>
    
    <ellipse cx="250" cy="150" rx="15" ry="20" fill="#d7ccc8" stroke="#5d4037" stroke-width="2"/>
    <rect x="235" y="130" width="30" height="80" fill="#efebe9" stroke="#5d4037" stroke-width="2"/>
    <ellipse cx="250" cy="130" rx="15" ry="20" fill="#f5f5f5"/>
    <line x1="235" y1="145" x2="265" y2="145" stroke="#8d6e63" stroke-width="1"/>
    
    <ellipse cx="300" cy="150" rx="15" ry="20" fill="#5d4037" stroke="#3e2723" stroke-width="2"/>
    <rect x="285" y="130" width="30" height="80" fill="#6d4c41" stroke="#3e2723" stroke-width="2"/>
    <ellipse cx="300" cy="130" rx="15" ry="20" fill="#795548"/>
    
    <!-- Front row - premium selection -->
    <ellipse cx="125" cy="180" rx="15" ry="20" fill="#5d4037" stroke="#3e2723" stroke-width="2"/>
    <rect x="110" y="160" width="30" height="90" fill="#6d4c41" stroke="#3e2723" stroke-width="2"/>
    <ellipse cx="125" cy="160" rx="15" ry="20" fill="#795548"/>
    <line x1="125" y1="155" x2="125" y2="165" stroke="#5d4037" stroke-width="1"/>
    <line x1="120" y1="160" x2="130" y2="160" stroke="#5d4037" stroke-width="1"/>
    
    <ellipse cx="175" cy="180" rx="15" ry="20" fill="#8d6e63" stroke="#5d4037" stroke-width="2"/>
    <rect x="160" y="160" width="30" height="90" fill="#a1887f" stroke="#5d4037" stroke-width="2"/>
    <ellipse cx="175" cy="160" rx="15" ry="20" fill="#bcaaa4"/>
    
    <ellipse cx="225" cy="180" rx="15" ry="20" fill="#d7ccc8" stroke="#5d4037" stroke-width="2"/>
    <rect x="210" y="160" width="30" height="90" fill="#efebe9" stroke="#5d4037" stroke-width="2"/>
    <ellipse cx="225" cy="160" rx="15" ry="20" fill="#f5f5f5"/>
    <line x1="210" y1="180" x2="240" y2="180" stroke="#8d6e63" stroke-width="1.5"/>
    <line x1="210" y1="200" x2="240" y2="200" stroke="#8d6e63" stroke-width="1.5"/>
    <line x1="210" y1="220" x2="240" y2="220" stroke="#8d6e63" stroke-width="1.5"/>
    
    <ellipse cx="275" cy="180" rx="15" ry="20" fill="#6d4c41" stroke="#3e2723" stroke-width="2"/>
    <rect x="260" y="160" width="30" height="90" fill="#795548" stroke="#3e2723" stroke-width="2"/>
    <ellipse cx="275" cy="160" rx="15" ry="20" fill="#8d6e63"/>
    <line x1="275" y1="155" x2="275" y2="165" stroke="#5d4037" stroke-width="1"/>
  </g>
  
  <!-- Premium star badge -->
  <g transform="translate(330, 35)">
    <circle cx="15" cy="15" r="20" fill="#ffd54f" stroke="#ff6f00" stroke-width="2"/>
    <path d="M 15 5 L 18 12 L 26 13 L 20 19 L 22 27 L 15 23 L 8 27 L 10 19 L 4 13 L 12 12 Z" 
          fill="#ff6f00"/>
    <text x="15" y="38" font-size="10" font-weight="bold" text-anchor="middle" fill="#ff6f00">PREMIUM</text>
  </g>
</svg>
