<svg xmlns="http://www.w3.org/2000/svg" viewBox="0 0 512 512" fill="none">
  <!-- Background circle -->
  <circle cx="256" cy="256" r="256" fill="#2E7D32"/>
  
  <!-- Tree silhouette (left) -->
  <path d="M160 420 L160 340 L140 340 L180 280 L160 280 L200 220 L180 220 L220 160 L180 220 L160 220 L200 280 L180 280 L220 340 L200 340 L200 420 Z" fill="#8D6E63" opacity="0.8"/>
  
  <!-- Tree silhouette (center) -->
  <path d="M256 440 L256 350 L230 350 L276 280 L250 280 L296 210 L270 210 L316 140 L270 210 L244 210 L290 280 L264 280 L310 350 L284 350 L284 440 Z" fill="#A0522D"/>
  
  <!-- Tree silhouette (right) -->
  <path d="M352 420 L352 340 L332 340 L372 280 L352 280 L392 220 L372 220 L412 160 L372 220 L352 220 L392 280 L372 280 L412 340 L392 340 L392 420 Z" fill="#8D6E63" opacity="0.8"/>
  
  <!-- Truck silhouette -->
  <g transform="translate(140, 320)">
    <rect x="0" y="20" width="160" height="60" rx="5" fill="#1B5E20"/>
    <rect x="140" y="0" width="60" height="60" rx="5" fill="#1B5E20"/>
    <rect x="150" y="10" width="40" height="30" fill="#FAFAFA" opacity="0.3"/>
    <circle cx="40" cy="90" r="15" fill="#424242"/>
    <circle cx="40" cy="90" r="8" fill="#757575"/>
    <circle cx="170" cy="90" r="15" fill="#424242"/>
    <circle cx="170" cy="90" r="8" fill="#757575"/>
  </g>
  
  <!-- Text JSGC -->
  <text x="256" y="480" font-family="Arial, sans-serif" font-size="48" font-weight="bold" fill="#FAFAFA" text-anchor="middle">JSGC</text>
</svg>
