<svg xmlns="http://www.w3.org/2000/svg" viewBox="0 0 180 180">
  <defs>
    <linearGradient id="grad" x1="0%" y1="0%" x2="100%" y2="100%">
      <stop offset="0%" style="stop-color:#2E7D32;stop-opacity:1" />
      <stop offset="100%" style="stop-color:#1B5E20;stop-opacity:1" />
    </linearGradient>
  </defs>
  <rect width="180" height="180" rx="30" fill="url(#grad)"/>
  <g transform="translate(90, 90)">
    <!-- Flame icon representing firewood -->
    <path d="M0,-40 C-10,-30 -15,-20 -15,-10 C-15,5 -5,15 0,20 C5,15 15,5 15,-10 C15,-20 10,-30 0,-40 Z" 
          fill="#8D6E63" opacity="0.8"/>
    <path d="M0,-35 C-7,-27 -10,-18 -10,-8 C-10,3 -3,10 0,13 C3,10 10,3 10,-8 C10,-18 7,-27 0,-35 Z" 
          fill="#FAFAFA" opacity="0.9"/>
  </g>
  <text x="90" y="140" font-family="Arial, sans-serif" font-size="50" font-weight="bold" 
        fill="#FAFAFA" text-anchor="middle">JSGC</text>
</svg>
